#!OML:ASF H:\Pregnant\Project 1\Capture day 1\Session 1\femalepreg.ASF
:FULLY-SPECIFIED
:DEGREES
356
root 7.39873 14.4745 20.4235 -138.379 6.73968 -175.234
lowerback 1.52775 2.92759 2.98206
upperback -5.41564 4.42081 1.02071
thorax -6.34987 2.19329 -0.920409
lowerneck -34.2379 12.6753 8.31824
upperneck -2.91986 17.5829 -16.748
head 6.39827 8.44959 -3.9718
rclavicle 0 -2.50469e-014
rhumerus -9.74768 24.61 -82.5043
rradius 82.5678
rwrist -47.2941
rhand -28.6207 -47.8904
rfingers 7.12502
rthumb -1.98542 -77.8609
lclavicle 0 -2.50469e-014
lhumerus -19.9287 -35.8042 89.4641
lradius 82.3031
lwrist 80.2617
lhand -61.7382 -8.2227
lfingers 7.12502
lthumb -33.805 18.6041
rfemur -80.6569 -11.5399 36.7404
rtibia 57.7459
rfoot -16.011 -5.24083
rtoes -8.25543
lfemur -80.0524 13.407 -21.863
ltibia 61.1039
lfoot -19.673 5.1336
ltoes -17.9329
357
root 7.39813 14.5353 20.4149 -138.656 6.70317 -175.239
lowerback 1.14929 2.91594 2.925
upperback -5.50934 4.40205 0.993994
thorax -6.23436 2.19455 -0.895431
lowerneck -34.1972 12.68 8.27282
upperneck -2.57409 17.5646 -16.6133
head 6.48725 8.4035 -3.9202
rclavicle -2.38542e-014 -1.90833e-014
rhumerus -10.3739 24.8196 -82.6663
rradius 82.568
rwrist -47.7068
rhand -28.795 -47.9502
rfingers 7.12502
rthumb -2.1537 -77.9191
lclavicle -2.38542e-014 -1.90833e-014
lhumerus -20.2989 -36.0613 89.594
lradius 82.2008
lwrist 80.098
lhand -61.4425 -8.06594
lfingers 7.12502
lthumb -33.524 18.8222
rfemur -79.6104 -11.3667 36.3445
rtibia 56.7423
rfoot -15.689 -5.62368
rtoes -8.36479
lfemur -79.0098 13.1175 -21.5189
ltibia 60.1069
lfoot -19.3582 5.44809
ltoes -17.9193
358
root 7.39723 14.5947 20.4057 -138.936 6.66007 -175.25
lowerback 0.766632 2.90386 2.87163
upperback -5.60485 4.38369 0.962516
thorax -6.11789 2.19594 -0.877384
lowerneck -34.1409 12.6861 8.23232
upperneck -2.22402 17.5452 -16.4736
head 6.5756 8.35738 -3.86832
rclavicle -2.66371e-014 -3.10104e-014
rhumerus -11.0028 25.0068 -82.8444
rradius 82.5566
rwrist -48.1076
rhand -28.984 -48.0784
rfingers 7.12502
rthumb -2.33628 -78.0454
lclavicle -2.66371e-014 -3.10104e-014
lhumerus -20.6664 -36.3298 89.7309
lradius 82.0888
lwrist 79.9522
lhand -61.1298 -7.90938
lfingers 7.12502
lthumb -33.2268 19.0427
rfemur -78.5667 -11.1828 35.9315
rtibia 55.7515
rfoot -15.3657 -6.02869
rtoes -8.47544
lfemur -77.9712 12.8147 -21.1827
ltibia 59.1136
lfoot -19.0382 5.75936
ltoes -17.8909
359
root 7.39612 14.6531 20.3958 -139.224 6.60742 -175.267
lowerback 0.390059 2.88896 2.8191
upperback -5.70024 4.36294 0.932335
thorax -6.00513 2.19624 -0.858857
lowerneck -34.0843 12.6917 8.18334
upperneck -1.86144 17.5265 -16.3217
head 6.6662 8.31167 -3.81109
rclavicle -2.38542e-014 9.93923e-015
rhumerus -11.6259 25.1788 -83.031
rradius 82.5301
rwrist -48.4895
rhand -29.1814 -48.2314
rfingers 7.12502
rthumb -2.52686 -78.1961
lclavicle -2.38542e-014 9.93923e-015
lhumerus -21.0301 -36.6008 89.8799
lradius 81.9691
lwrist 79.8134
lhand -60.8082 -7.75134
lfingers 7.12502
lthumb -32.9209 19.2655
rfemur -77.5174 -10.9905 35.5037
rtibia 54.7717
rfoot -15.0423 -6.45628
rtoes -8.59086
lfemur -76.929 12.5004 -20.8518
ltibia 58.1203
lfoot -18.7123 6.06632
ltoes -17.8761
360
root 7.39468 14.7101 20.3854 -139.506 6.5454 -175.296
lowerback 0.00269221 2.86903 2.76423
upperback -5.79815 4.33624 0.899025
thorax -5.88914 2.19401 -0.841585
lowerneck -34.0343 12.7006 8.12978
upperneck -1.48383 17.5118 -16.1545
head 6.76089 8.26778 -3.7472
rclavicle -2.28602e-014 9.14409e-015
rhumerus -12.2406 25.3321 -83.2293
rradius 82.4864
rwrist -48.84
rhand -29.3692 -48.3445
rfingers 7.12502
rthumb -2.70825 -78.307
lclavicle -2.28602e-014 9.14409e-015
lhumerus -21.3861 -36.8743 90.0329
lradius 81.8478
lwrist 79.6893
lhand -60.5099 -7.53586
lfingers 7.12502
lthumb -32.6371 19.5402
rfemur -76.4831 -10.7914 35.0622
rtibia 53.7974
rfoot -14.7054 -6.90854
rtoes -8.77562
lfemur -75.899 12.1673 -20.5349
ltibia 57.1221
lfoot -18.376 6.36852
ltoes -17.8671
